<svg width="27" height="16" viewBox="0 0 27 16" fill="none" xmlns="http://www.w3.org/2000/svg">
<path fill-rule="evenodd" clip-rule="evenodd" d="M4.5633 0.1875H1.7189C0.906201 0.1875 0.743652 0.570025 0.743652 0.991713C0.743652 1.74498 1.70798 5.48077 5.23369 10.4217C7.58417 13.7959 10.8958 15.625 13.9092 15.625C15.7173 15.625 15.941 15.2188 15.941 14.519V11.9688C15.941 11.1562 16.1123 10.9941 16.6847 10.9941C17.1067 10.9941 17.8299 11.205 19.5174 12.8319C21.4461 14.76 21.764 15.625 22.8488 15.625H25.6932C26.5059 15.625 26.9122 15.2188 26.6778 14.4171C26.4213 13.618 25.5005 12.4587 24.2787 11.0845C23.6157 10.3012 22.6213 9.45764 22.3199 9.03579C21.8981 8.49352 22.0186 8.25246 22.3199 7.77048C22.3199 7.77048 25.7854 2.88979 26.147 1.23286C26.3278 0.630231 26.147 0.1875 25.2868 0.1875H22.4424C21.7192 0.1875 21.3858 0.570025 21.2049 0.991713C21.2049 0.991713 19.7585 4.51666 17.7094 6.80637C17.0464 7.46912 16.745 7.68005 16.3834 7.68005C16.2026 7.68005 15.9409 7.46913 15.9409 6.86666V1.23286C15.9409 0.509738 15.731 0.1875 15.1282 0.1875H10.6584C10.2065 0.1875 9.93465 0.523062 9.93465 0.841156C9.93465 1.52658 10.9592 1.68469 11.0648 3.61284V7.80063C11.0648 8.71875 10.8989 8.88523 10.5374 8.88523C9.57309 8.88523 7.22748 5.34452 5.83632 1.29307C5.56373 0.505594 5.29024 0.1875 4.5633 0.1875Z" fill="white"/>
</svg>
