<svg width="39" height="39" viewBox="0 0 39 39" fill="none" xmlns="http://www.w3.org/2000/svg">
<g clip-path="url(#clip0)">
<path d="M0 18.6875C0 9.87813 0 5.47344 2.73672 2.73672C5.47344 0 9.87813 0 18.6875 0H20.3125C29.1219 0 33.5266 0 36.2633 2.73672C39 5.47344 39 9.87813 39 18.6875V20.3125C39 29.1219 39 33.5266 36.2633 36.2633C33.5266 39 29.1219 39 20.3125 39H18.6875C9.87813 39 5.47344 39 2.73672 36.2633C0 33.5266 0 29.1219 0 20.3125L0 18.6875Z" fill="#2787F5"/>
<path fill-rule="evenodd" clip-rule="evenodd" d="M10.5633 12.1875H7.7189C6.9062 12.1875 6.74365 12.57 6.74365 12.9917C6.74365 13.745 7.70798 17.4808 11.2337 22.4217C13.5842 25.7959 16.8958 27.625 19.9092 27.625C21.7173 27.625 21.941 27.2188 21.941 26.519V23.9688C21.941 23.1562 22.1123 22.9941 22.6847 22.9941C23.1067 22.9941 23.8299 23.205 25.5174 24.8319C27.4461 26.76 27.764 27.625 28.8488 27.625H31.6932C32.5059 27.625 32.9122 27.2188 32.6778 26.4171C32.4213 25.618 31.5005 24.4587 30.2787 23.0845C29.6157 22.3012 28.6213 21.4576 28.3199 21.0358C27.8981 20.4935 28.0186 20.2525 28.3199 19.7705C28.3199 19.7705 31.7854 14.8898 32.147 13.2329C32.3278 12.6302 32.147 12.1875 31.2868 12.1875H28.4424C27.7192 12.1875 27.3858 12.57 27.2049 12.9917C27.2049 12.9917 25.7585 16.5167 23.7094 18.8064C23.0464 19.4691 22.745 19.68 22.3834 19.68C22.2026 19.68 21.9409 19.4691 21.9409 18.8667V13.2329C21.9409 12.5097 21.731 12.1875 21.1282 12.1875H16.6584C16.2065 12.1875 15.9347 12.5231 15.9347 12.8412C15.9347 13.5266 16.9592 13.6847 17.0648 15.6128V19.8006C17.0648 20.7188 16.8989 20.8852 16.5374 20.8852C15.5731 20.8852 13.2275 17.3445 11.8363 13.2931C11.5637 12.5056 11.2902 12.1875 10.5633 12.1875Z" fill="white"/>
</g>
<defs>
<clipPath id="clip0">
<rect width="39" height="39" fill="white"/>
</clipPath>
</defs>
</svg>
